<svg version="1.2" xmlns="http://www.w3.org/2000/svg" viewBox="0 0 498 573" width="498" height="573">
	<style>
		.s0 { fill: #fdfdfd } 
	</style>
	<g>
		<path class="s0" d="m57.5 565.86c-12.67-1.19-26.26-8.15-34.52-17.68-4.92-5.69-11.41-18.53-13.48-26.68-3.57-14.07-2.83-33.06 2.15-55.5 3.03-13.64 11.8-47.46 16.84-64.97 7.94-27.59 19.61-45.66 38.77-60.11 7.79-5.87 20.35-12.92 23.01-12.92 0.72 0 2.55 2.52 4.06 5.6 6.78 13.83 26.9 29.24 46.67 35.74 4.12 1.36 13.09 3.43 19.92 4.6 11.13 1.91 13.17 2.6 19.5 6.54 42.53 26.49 101.12 25.89 141.58-1.47 4.8-3.25 6.71-3.87 15.04-4.91 18.44-2.3 31.12-6.75 44.46-15.6 10.39-6.9 21.75-18.63 25.09-25.91 1.4-3.07 3.07-5.59 3.7-5.59 0.62 0 4.77 1.8 9.21 4 15.49 7.68 30.39 21.84 40.11 38.14 7.58 12.72 13.18 29.3 23.27 68.86 9.74 38.23 10.45 42.42 10.51 62.5 0.05 17.11-0.08 18.41-2.72 26.29-9.74 29.04-37.15 45.28-64.69 38.33-23.1-5.83-36.43-16.82-65.69-54.12-14.33-18.28-19.85-23.88-27.29-27.69l-5.5-2.81-74.91-0.27c-83.87-0.31-80.62-0.56-90.89 6.8-4.23 3.03-9.65 9.19-20.92 23.78-17.94 23.24-34.15 40.06-44.28 45.97-12.71 7.42-25.36 10.36-39 9.08zm341.29-89.75c2.04-1.05 4.48-2.75 5.42-3.79 2.39-2.64 4.79-8.72 4.77-12.04-0.04-4.81-3.54-10.96-7.88-13.83-3.58-2.37-4.81-2.64-10.46-2.28-7.98 0.51-12.65 3.67-15.17 10.27-5.58 14.6 9.58 28.68 23.32 21.67zm-279.22-5.57c5.11-2.14 6.43-6.15 6.43-19.51v-11.03h11.53c13.24 0 17.52-1.26 19.9-5.87 3.04-5.87 1.41-20.18-2.58-22.76-0.74-0.48-7.42-1.1-14.85-1.37l-13.5-0.5-0.5-12.55c-0.69-17.33-2.61-19.95-14.6-19.95-12.74 0-15.4 3.71-15.4 21.47v11.53h-12.45c-7.53 0-13.49 0.47-15.08 1.19-3.81 1.74-5.47 5.77-5.47 13.31 0 12.69 3.99 15.5 22.02 15.5h10.98v11.55c0 13.19 1.19 16.76 6.31 18.99 4.21 1.83 12.88 1.82 17.26 0zm314.85-28.94c7.95-4.66 10.89-15.15 6.6-23.56-4.05-7.95-13.42-11.07-22.64-7.55-8.23 3.15-12.59 13.53-9.32 22.19 3.75 9.93 16.18 14.3 25.36 8.92zm-72.74 0.34c3.84-1.45 8.28-5.77 9.94-9.66 4.9-11.45-3.83-24.33-16.44-24.26-5.18 0.03-11.46 3.16-14.28 7.11-3.38 4.75-3.47 15.87-0.16 20.51 4.29 6.01 13.98 8.93 20.94 6.3zm35.62-33.29c4.4-1.84 9.46-7.84 10.27-12.19 2.25-11.99-5.26-21.46-17.01-21.46-9.83 0-16.67 6.3-17.37 16.02-0.97 13.42 11.82 22.76 24.11 17.63zm-233.03-52.64c-31.56-4.46-54.15-21.09-58.25-42.87-0.87-4.64-0.48-13.14 0.61-13.14 0.2 0 2.5 1.52 5.12 3.38 21.57 15.36 42.37 15.31 64.95-0.15 26.72-18.29 32.29-20.73 47.3-20.73 10.86 0.01 15.18 1.23 21.58 6.11l4.49 3.43 3.8-3.05c10.83-8.71 29.38-9.43 44.63-1.76 2.2 1.11 10.57 6.4 18.6 11.77 16.06 10.72 21.58 13.21 33.18 14.97 13.6 2.06 26.34-1.18 37.22-9.48 2.75-2.09 5.15-4.19 5.33-4.65 0.19-0.46 0.81-0.84 1.39-0.84 2.09 0 0.24 16.31-2.54 22.38-14.61 31.92-66.19 45.14-107.68 27.58-9.81-4.15-22.39-12.54-28.33-18.89-2.61-2.79-5.15-5.07-5.64-5.07-0.49 0-1.89 1.39-3.1 3.1-6.56 9.2-27.87 21.94-43.43 25.95-9.15 2.35-29.3 3.36-39.23 1.96zm-21.79-77.94c-13.92-2.21-24.59-7.5-29.93-14.85-7.04-9.67-11.9-31.99-11.91-54.72-0.01-14.6 1.67-20.84 7.69-28.69 10.57-13.76 22.26-16.39 68.99-15.53 30.16 0.56 35.9 1.37 44.18 6.21 5.12 3 10.73 8.91 13.29 14.01l2.01 4 12.45 0.05 12.44 0.05 2.13-4.64c2.93-6.37 10.48-13.18 17.56-15.83 9.01-3.37 17.08-4.09 46.12-4.11 39.14-0.02 51 1.92 59.71 9.79 4.54 4.1 8.91 12.23 10.86 20.19 2.98 12.17 0.17 44.28-5.11 58.38-7.61 20.33-26.05 27.69-65.95 26.34-12.98-0.45-18.56-1.1-26.1-3.05-26.88-6.94-35.55-18.83-39.1-53.59-0.65-6.37-1.66-11.91-2.25-12.31-1.28-0.89-15.14-0.99-18.31-0.14-1.87 0.5-2.25 1.3-2.26 4.74 0 6.45-3.71 26.8-5.98 32.86-5.53 14.79-16.88 24.17-35.51 29.34-6.75 1.88-45.93 2.94-55.02 1.5zm49.02-20.43c12.61-3.38 21.27-10.55 23.94-19.85 2.29-7.94 3.52-18.13 3.54-29.33 0.02-8.45-0.34-10.74-2.23-14.48-1.24-2.44-3.63-5.22-5.32-6.19-4.96-2.85-20.93-3.99-50.12-3.6-29.57 0.4-31.57 0.77-36.58 6.72-4.11 4.88-5.05 9.99-4.27 23.09 1.88 31.2 6.38 40.39 21.39 43.62 8.02 1.72 43.22 1.74 49.65 0.02zm170.14-1.05c12.35-3.85 17.62-17.64 17.79-46.59 0.06-10.02-0.27-13.12-1.64-15.63-2.13-3.88-7.07-8.13-10.62-9.12-1.47-0.41-18.19-0.75-37.17-0.75-38.25 0-41.23 0.42-46.41 6.58-3.42 4.06-4.01 9.72-2.71 25.72 2.13 26.16 6.14 33.66 20.72 38.72 8.28 2.87 14.14 3.37 34.9 3.02 14.75-0.26 21.35-0.77 25.14-1.95zm-287.92-62.84c-3.81-2.87-12.85-26.95-15.25-40.63-1.84-10.48-1.84-18.7-0.01-27.35 2.05-9.68 4.72-15.03 10.62-21.27 5.92-6.25 13.1-10.13 20.53-11.07l5.11-0.65 0.68-9.64c0.9-12.92 2.91-21.05 7.55-30.64 12.06-24.89 34.51-41.34 64.08-46.95 10.67-2.02 33.88-2.04 45.59-0.03 18.4 3.16 30.71 7.64 65.88 23.96 30.1 13.97 46.39 19.55 61.53 21.09 12.38 1.26 25.7-3.3 33.08-11.31 3.8-4.11 8.86-13.24 8.88-16.01 0.04-5.12 11.22 6.2 15.99 16.2 5.13 10.75 7.15 20.44 7.12 34.03-0.03 13.46-2.35 23.47-8.24 35.52-3.37 6.9-5.87 10.22-13.26 17.62-8 8.02-10.37 9.74-19.6 14.2-16.52 7.98-31.97 10.9-52.03 9.83-27.01-1.43-48.37-7.99-95.1-29.2-33.81-15.35-44.13-18.45-61.34-18.45-30.77 0-46.08 14.84-57.02 55.26-2.23 8.25-2.7 9.06-8.06 13.96-6.62 6.05-9.47 10.25-11.87 17.53-1.86 5.61-2.27 5.95-4.86 4zm335.44-19.09c-2.32-2.36-5.96-5.39-8.09-6.73-3.21-2.01-4.67-4.15-8.48-12.43-2.53-5.5-4.6-10.26-4.6-10.58 0.01-0.55 13.06-13.92 13.58-13.92 0.7 0 6.61 15.64 8.34 22.07 2.03 7.5 4.65 24.71 3.88 25.47-0.23 0.23-2.31-1.52-4.63-3.88zm-234.04 64.33c-7.85-1.83-12.47-8.28-11.86-16.58 0.68-9.14 6.73-14.41 16.56-14.41 8.29 0 14.18 6.44 14.18 15.5 0 8.75-4.64 14.05-14 15.97-0.82 0.17-3.02-0.05-4.88-0.48zm139.38-1.85c-8.36-5.16-10.52-14.31-5.38-22.78 3.77-6.22 14.94-8.45 21.69-4.34 3.68 2.25 7.15 8.79 7.15 13.48 0 4.75-3.36 10.97-7.21 13.35-4.45 2.75-12.05 2.89-16.25 0.29z"/>
	</g>
</svg>