<?xml version="1.0" encoding="UTF-8" standalone="no"?>
<svg
   version="1.2"
   viewBox="0 0 475.1694 475.1694"
   width="475.1694"
   height="475.1694"
   id="svg1"
   xmlns="http://www.w3.org/2000/svg"
   xmlns:svg="http://www.w3.org/2000/svg">
  <defs
     id="defs1">
    <linearGradient
       id="swatch15">
      <stop
         style="stop-color:#bfbfbf;stop-opacity:1;"
         offset="0"
         id="stop15" />
    </linearGradient>
  </defs>
  <style
     id="style1">
		.s0 { fill: #fdfdfd } 
	</style>
  <circle
     style="display:inline;fill:#c9c9c9;fill-opacity:1;fill-rule:nonzero;stroke:#e0e0e0;stroke-width:8.016;stroke-dasharray:none;stroke-dashoffset:0;stroke-opacity:0.982143"
     id="path2"
     cx="237.5847"
     cy="237.5847"
     r="233.57671" />
  <g
     id="g1"
     style="fill:#333333"
     transform="matrix(0.64773862,0,0,0.6476871,80.432673,48.990227)">
    <path
       class="s0"
       d="M 39.790229,555.08787 C 26.457694,553.86254 12.157051,546.69586 3.4651221,536.88287 -1.7121529,531.0239 -8.5415244,517.80262 -10.719768,509.41061 -14.476449,494.9228 -13.697753,475.36889 -8.4573414,452.26254 -5.2688974,438.2175 3.9596987,403.39322 9.2632483,385.36326 17.618445,356.95398 29.898688,338.34739 50.060595,323.4683 c 8.197352,-6.0443 21.414134,-13.30365 24.213227,-13.30365 0.757649,0 2.683343,2.59483 4.27231,5.76629 7.134537,14.24068 28.306638,30.10828 49.110448,36.80129 4.33544,1.40039 13.77449,3.53186 20.96165,4.7366 11.712,1.96672 13.85868,2.67721 20.51969,6.7342 44.75395,27.27662 106.40772,26.65881 148.98344,-1.51364 5.051,-3.34651 7.06088,-3.98492 15.82646,-5.05581 19.40426,-2.3683 32.74732,-6.95044 46.78488,-16.06323 10.93331,-7.1049 22.88735,-19.18322 26.402,-26.6794 1.47321,-3.16116 3.23054,-5.75599 3.89348,-5.75599 0.65243,0 5.01943,1.85344 9.69161,4.11877 16.29999,7.90806 31.97914,22.48854 42.20742,39.27257 7.97637,13.09771 13.8692,30.17006 24.48682,70.90479 10.24932,39.36524 10.99645,43.67965 11.05958,64.35592 0.0526,17.61809 -0.0842,18.95669 -2.86223,27.07069 -10.24932,29.90234 -39.09264,46.62458 -68.07274,39.4682 -24.30794,-6.00313 -38.33499,-17.31947 -69.12504,-55.72709 -15.07933,-18.82282 -20.88798,-24.58912 -28.71704,-28.51225 l -5.78759,-2.89344 -78.82717,-0.27802 c -88.2557,-0.3192 -84.83575,-0.57663 -95.64278,7.00193 -4.4512,3.11997 -10.15462,9.4629 -22.01394,24.48614 -18.87812,23.93011 -35.935762,41.24958 -46.595482,47.33507 -13.374623,7.64034 -26.686111,10.66764 -41.039369,9.34963 z M 398.92683,462.67276 c 2.14667,-1.08118 4.71426,-2.83166 5.70342,-3.90255 2.51498,-2.71839 5.04048,-8.97894 5.01943,-12.39752 -0.0421,-4.95283 -3.72511,-11.28546 -8.29206,-14.24068 -3.7672,-2.44038 -5.06152,-2.7184 -11.00697,-2.34771 -8.39728,0.52515 -13.31149,3.77899 -15.96326,10.57497 -5.87179,15.03354 10.08095,29.53165 24.53944,22.31349 z m -293.82086,-5.7354 c 5.37721,-2.20355 6.76624,-6.33263 6.76624,-20.08935 v -11.35753 h 12.13292 c 13.93234,0 18.43615,-1.29742 20.9406,-6.04431 3.19896,-6.04431 1.48373,-20.77924 -2.71491,-23.43586 -0.7787,-0.49426 -7.80801,-1.13267 -15.62653,-1.41068 l -14.20594,-0.51485 -0.52614,-12.92267 c -0.72609,-17.84461 -2.74648,-20.54242 -15.363466,-20.54242 -13.406192,0 -16.205291,3.82018 -16.205291,22.10756 v 11.87238 H 67.202425 c -7.923756,0 -14.195414,0.48396 -15.868557,1.22534 -4.009231,1.79167 -5.756035,5.94134 -5.756035,13.70523 0,13.06684 4.198643,15.96028 23.17146,15.96028 h 11.55416 v 11.89297 c 0,13.58168 1.252228,17.25769 6.639966,19.55391 4.430143,1.88434 13.553511,1.87404 18.162551,0 z m 331.31401,-29.79937 c 8.36572,-4.79838 11.45945,-15.59988 6.94513,-24.25961 -4.26179,-8.18607 -14.12176,-11.39873 -23.82389,-7.7742 -8.66036,3.24354 -13.24835,13.93177 -9.80736,22.84893 3.94609,10.22487 17.02608,14.72464 26.68612,9.18488 z m -76.54369,0.35009 c 4.04079,-1.49305 8.71297,-5.94134 10.45978,-9.94685 5.15622,-11.79 -4.03028,-25.05247 -17.29968,-24.9804 -5.45087,0.0309 -12.05926,3.25384 -15.02672,7.32113 -3.55675,4.89105 -3.65145,16.34126 -0.16837,21.11905 4.51434,6.18846 14.71104,9.19517 22.03499,6.48707 z m 37.48262,-34.27854 c 4.63008,-1.89463 9.95468,-8.0728 10.80704,-12.55198 2.36765,-12.34604 -5.53505,-22.09725 -17.89948,-22.09725 -10.34402,0 -17.5417,6.48707 -18.27831,16.49571 -1.02072,13.81851 12.43809,23.43586 25.37075,18.15352 z M 152.1434,339.00641 c -33.21032,-4.59245 -56.981588,-21.71627 -61.295983,-44.14303 -0.915491,-4.77778 -0.505102,-13.53019 0.641901,-13.53019 0.210451,0 2.630726,1.56514 5.387729,3.48037 22.697933,15.81611 44.585603,15.76463 68.346343,-0.15445 28.11723,-18.83312 33.97849,-21.34558 49.77339,-21.34558 11.42789,0.0103 15.97379,1.26652 22.70846,6.29144 l 4.72478,3.53185 3.99871,-3.14057 c 11.39632,-8.96864 30.91632,-9.71002 46.96377,-1.81226 2.31504,1.14296 11.12273,6.59004 19.57262,12.11951 16.89981,11.03832 22.70846,13.60226 34.91504,15.41453 14.31117,2.12117 27.71736,-1.21504 39.16629,-9.76151 2.89381,-2.15206 5.41931,-4.31442 5.60872,-4.78808 0.19993,-0.47366 0.85235,-0.86494 1.46268,-0.86494 2.19929,0 0.25256,16.79432 -2.67281,23.04457 -15.37398,32.86786 -69.65119,46.48042 -113.31076,28.39898 -10.32299,-4.27323 -23.56082,-12.91237 -29.81143,-19.45093 -2.74648,-2.87285 -5.4193,-5.22056 -5.93492,-5.22056 -0.51562,0 -1.98883,1.43128 -3.2621,3.19206 -6.90303,9.47319 -29.32737,22.59151 -45.70103,26.72058 -9.62846,2.41978 -30.83214,3.45978 -41.2814,2.01821 z m -22.92943,-80.25443 c -14.6479,-2.27563 -25.87585,-7.72271 -31.495093,-15.29097 -7.408127,-9.95714 -12.522266,-32.93994 -12.532788,-56.3449 -0.01052,-15.03354 1.75733,-21.45884 8.092124,-29.54195 11.122717,-14.16859 23.424017,-16.87669 72.597597,-15.99116 31.73711,0.57663 37.77727,1.41068 46.49024,6.39441 5.38773,3.08908 11.29109,9.17458 13.98496,14.42602 l 2.1151,4.11879 13.10103,0.0515 13.09051,0.0515 2.24139,-4.77778 c 3.08321,-6.55916 11.02801,-13.57138 18.47823,-16.30007 9.48114,-3.47007 17.97315,-4.21146 48.5317,-4.23205 41.18668,-0.0206 53.66686,1.97701 62.83232,10.08071 4.77741,4.22175 9.37592,12.59317 11.42789,20.78955 3.13583,12.53138 0.17888,45.59488 -5.37721,60.11358 -8.00794,20.9337 -27.4122,28.51225 -69.39863,27.12217 -13.65875,-0.46337 -19.53053,-1.13267 -27.46482,-3.14058 -28.28559,-7.14608 -37.40896,-19.38915 -41.1446,-55.18135 -0.68398,-6.55915 -1.7468,-12.26366 -2.36765,-12.67554 -1.34694,-0.91643 -15.9317,-1.01939 -19.26746,-0.14416 -1.96778,0.51485 -2.36766,1.33861 -2.37818,4.88076 0,6.64153 -3.904,27.59582 -6.2927,33.83577 -5.81918,15.22918 -17.76268,24.88773 -37.36688,30.21125 -7.10296,1.93583 -48.33175,3.0273 -57.89708,1.54454 z m 51.58333,-21.03666 c 13.2694,-3.48038 22.38224,-10.86329 25.19186,-20.43945 2.40975,-8.17577 3.70407,-18.66836 3.72511,-30.20095 0.0211,-8.70092 -0.35778,-11.05892 -2.3466,-14.90998 -1.30485,-2.51245 -3.81982,-5.375 -5.5982,-6.37381 -5.21936,-2.93463 -22.02446,-4.10848 -52.74085,-3.7069 -31.11626,0.41187 -33.22084,0.79286 -38.49282,6.91955 -4.32492,5.0249 -5.31408,10.28665 -4.49329,23.77565 1.97831,32.12648 6.71362,41.58938 22.50852,44.9153 8.43937,1.77107 45.48003,1.79166 52.24627,0.0206 z m 179.0369,-1.08118 c 12.99579,-3.96433 18.54138,-18.16382 18.72026,-47.97349 0.0631,-10.31754 -0.28412,-13.5096 -1.72576,-16.09413 -2.24138,-3.99521 -7.4397,-8.37142 -11.17533,-9.39081 -1.54687,-0.42218 -19.14119,-0.77228 -39.11368,-0.77228 -40.25015,0 -43.38598,0.43248 -48.83686,6.77539 -3.59883,4.18057 -4.21968,10.00864 -2.8517,26.48375 2.24138,26.93683 6.46107,34.65953 21.80348,39.86979 8.71297,2.95523 14.8794,3.47007 36.72498,3.10968 15.5213,-0.26772 22.46642,-0.79286 26.45461,-2.0079 z M 56.858399,171.92811 C 52.849168,168.97288 43.336452,144.17783 40.810952,130.0916 38.874735,119.30041 38.874735,110.83631 40.800432,101.92945 42.95763,91.962011 45.767248,86.453145 51.975768,80.027847 58.205335,73.592248 65.760788,69.597036 73.579315,68.629122 l 5.377207,-0.669304 0.715562,-9.926256 c 0.947063,-13.303657 3.062165,-21.675077 7.944801,-31.549851 12.690635,-25.62910475 36.314585,-42.567585 67.430845,-48.344175 11.22795,-2.079983 35.65164,-2.100577 47.97397,-0.03089 19.36217,3.253838 32.31588,7.866871 69.32497,24.6714902 31.67398,14.3848378 48.81581,20.1305358 64.74751,21.7162658 13.02736,1.297415 27.04388,-3.397994 34.8098,-11.64585 3.99871,-4.2320448 9.3233,-13.63316045 9.34435,-16.4854145 0.0421,-5.2720366 11.80671,6.3841077 16.82615,16.6810565 5.39825,11.06922 7.52388,21.046964 7.4923,35.040517 -0.0316,13.859693 -2.47288,24.16694 -8.67087,36.574762 -3.54623,7.104888 -6.17695,10.523488 -13.95339,18.143227 -8.41833,8.25815 -10.91227,10.02922 -20.62492,14.62166 -17.38386,8.21697 -33.64175,11.22367 -54.75073,10.1219 C 279.14448,126.0758 256.66752,119.321 207.49394,97.481181 171.91596,81.675357 161.05631,78.483303 142.94637,78.483303 c -32.37901,0 -48.489589,15.280678 -60.001661,56.900937 -2.346614,8.49498 -2.841185,9.32903 -8.48147,14.37454 -6.966172,6.22965 -9.965202,10.55438 -12.490703,18.05055 -1.957262,5.77659 -2.388701,6.12668 -5.114136,4.11878 z M 409.83909,152.27123 c -2.44131,-2.43008 -6.27166,-5.55005 -8.51304,-6.92984 -3.37785,-2.06969 -4.9142,-4.27324 -8.92343,-12.79911 -2.66229,-5.66332 -4.84054,-10.56467 -4.84054,-10.89417 0.0105,-0.56634 13.74293,-14.33335 14.29011,-14.33335 0.73661,0 6.95566,16.10443 8.77612,22.72536 2.13615,7.72272 4.89315,25.44377 4.08289,26.22633 -0.24203,0.23683 -2.43079,-1.56513 -4.87211,-3.99522 z m -246.27832,66.24028 c -8.26049,-1.88434 -13.12208,-8.52588 -12.48018,-17.07234 0.71555,-9.41142 7.08192,-14.83791 17.42595,-14.83791 8.72349,0 14.92149,6.63124 14.92149,15.96028 0,9.00983 -4.88263,14.4672 -14.73208,16.44422 -0.86288,0.17505 -3.17792,-0.0515 -5.13518,-0.49425 z m 146.6684,-1.90494 c -8.79716,-5.31322 -11.07011,-14.73494 -5.66133,-23.45645 3.96714,-6.4047 15.72124,-8.70092 22.8242,-4.46887 3.87244,2.31681 7.52389,9.05102 7.52389,13.88029 0,4.89104 -3.5357,11.29575 -7.58703,13.74642 -4.68269,2.83166 -12.68011,2.97582 -17.09973,0.29861 z"
       id="path1"
       style="fill:#333333;stroke-width:1.04093" />
  </g>
</svg>
