<?xml version="1.0" encoding="UTF-8"?>
<!DOCTYPE svg PUBLIC "-//W3C//DTD SVG 1.1//EN" "http://www.w3.org/Graphics/SVG/1.1/DTD/svg11.dtd">
<svg xmlns="http://www.w3.org/2000/svg" version="1.1" width="480px" height="480px" style="shape-rendering:geometricPrecision; text-rendering:geometricPrecision; image-rendering:optimizeQuality; fill-rule:evenodd; clip-rule:evenodd" xmlns:xlink="http://www.w3.org/1999/xlink">
<g><path style="opacity:0.966" fill="#f1f1f1" d="M 218.5,-0.5 C 232.5,-0.5 246.5,-0.5 260.5,-0.5C 352.071,10.9271 418.238,57.9271 459,140.5C 469.769,165.25 476.602,190.917 479.5,217.5C 479.5,232.167 479.5,246.833 479.5,261.5C 470.579,337.859 434.579,397.693 371.5,441C 337.439,462.52 300.439,475.353 260.5,479.5C 246.5,479.5 232.5,479.5 218.5,479.5C 126.929,468.073 60.7624,421.073 20,338.5C 9.23115,313.75 2.39781,288.083 -0.5,261.5C -0.5,246.833 -0.5,232.167 -0.5,217.5C 8.42128,141.141 44.4213,81.3072 107.5,38C 141.561,16.4805 178.561,3.64716 218.5,-0.5 Z"/></g>
<g><path style="opacity:1" fill="#f5f5f5" d="M 415.5,370.5 C 411.388,346.927 400.055,327.76 381.5,313C 376.034,309.183 370.201,306.017 364,303.5C 353.651,321.837 338.151,333.337 317.5,338C 311.484,338.907 305.484,339.907 299.5,341C 270.981,359.356 240.314,364.023 207.5,355C 197.09,351.092 187.09,346.425 177.5,341C 150.258,338.975 129.091,326.808 114,304.5C 86.3902,317.621 69.8902,339.288 64.5,369.5C 63.3503,372.725 62.1836,376.058 61,379.5C 22.8597,330.044 7.19303,274.044 14,211.5C 27.1787,128.587 71.3453,68.7534 146.5,32C 220.408,1.62131 291.741,6.62131 360.5,47C 428.859,92.3556 464.192,156.356 466.5,239C 466.426,291.56 450.259,338.394 418,379.5C 417.315,376.421 416.481,373.421 415.5,370.5 Z"/></g>
<g><path style="opacity:1" fill="#010101" d="M 178.5,56.5 C 194.43,55.4606 210.097,56.9606 225.5,61C 244.744,68.4149 263.744,76.4149 282.5,85C 294.628,90.5335 307.294,92.5335 320.5,91C 331.989,88.677 338.989,81.8437 341.5,70.5C 345.302,71.7786 348.469,74.1119 351,77.5C 357.386,86.83 360.22,97.1634 359.5,108.5C 358.332,140.515 341.999,160.015 310.5,167C 288.526,170.575 267.192,168.242 246.5,160C 226.281,151.39 205.947,143.057 185.5,135C 174.969,132.561 164.302,131.894 153.5,133C 140.849,136.983 132.015,145.149 127,157.5C 123.997,165.844 120.997,174.178 118,182.5C 115,185.5 112,188.5 109,191.5C 107.151,195.198 105.318,198.864 103.5,202.5C 100.939,200.393 99.1058,197.726 98,194.5C 91.3391,180.194 88.6724,165.194 90,149.5C 93.486,134.174 102.986,125.841 118.5,124.5C 120.475,85.8615 140.475,63.1949 178.5,56.5 Z"/></g>
<g><path style="opacity:1" fill="#0a0a0a" d="M 356.5,153.5 C 361.515,161.704 364.682,170.704 366,180.5C 366.667,183.5 366.667,186.5 366,189.5C 362,186.167 358,182.833 354,179.5C 351.5,174.5 349,169.5 346.5,164.5C 349.855,160.813 353.189,157.147 356.5,153.5 Z"/></g>
<g><path style="opacity:1" fill="#050505" d="M 156.5,178.5 C 174.246,177.932 191.913,178.765 209.5,181C 218.371,183.036 224.704,188.203 228.5,196.5C 235.142,197.664 241.808,197.831 248.5,197C 253.982,185.871 262.982,179.871 275.5,179C 290.167,178.333 304.833,178.333 319.5,179C 347.371,179.515 359.205,193.681 355,221.5C 354.352,230.369 352.686,239.036 350,247.5C 345.408,257.559 337.574,263.392 326.5,265C 308.673,267.548 291.006,266.881 273.5,263C 262.333,259.833 255.167,252.667 252,241.5C 250.148,232.533 248.481,223.533 247,214.5C 241.918,213.363 236.751,213.196 231.5,214C 230.042,223.528 228.208,233.028 226,242.5C 220.651,254.6 211.484,262.1 198.5,265C 183.521,266.365 168.521,266.698 153.5,266C 139.307,264.137 130.473,256.303 127,242.5C 123.75,228.673 122.75,214.673 124,200.5C 129.849,185.824 140.683,178.491 156.5,178.5 Z"/></g>
<g><path style="opacity:1" fill="#f4f4f4" d="M 148.5,194.5 C 166.17,194.333 183.836,194.5 201.5,195C 211.489,196.444 216.156,202.278 215.5,212.5C 214.885,219.523 214.052,226.523 213,233.5C 209.28,243.458 202.113,249.291 191.5,251C 179.833,251.667 168.167,251.667 156.5,251C 146.305,249.155 140.805,242.988 140,232.5C 138.547,222.874 138.214,213.207 139,203.5C 141.43,199.566 144.597,196.566 148.5,194.5 Z"/></g>
<g><path style="opacity:1" fill="#f3f3f3" d="M 273.5,194.5 C 292.503,194.333 311.503,194.5 330.5,195C 338.952,199.401 341.952,206.401 339.5,216C 340.515,226.596 338.349,236.429 333,245.5C 330.749,247.377 328.249,248.877 325.5,250C 312.548,251.567 299.548,251.9 286.5,251C 274.919,249.814 267.753,243.648 265,232.5C 262.881,222.929 262.214,213.262 263,203.5C 265.103,198.722 268.603,195.722 273.5,194.5 Z"/></g>
<g><path style="opacity:1" fill="#080808" d="M 179.5,212.5 C 190.845,211.347 196.012,216.347 195,227.5C 192.446,234.815 187.279,237.648 179.5,236C 168.863,228.083 168.863,220.249 179.5,212.5 Z"/></g>
<g><path style="opacity:1" fill="#060606" d="M 290.5,212.5 C 305.074,211.691 309.907,218.024 305,231.5C 296.8,238.9 289.8,237.9 284,228.5C 282.062,221.389 284.229,216.056 290.5,212.5 Z"/></g>
<g><path style="opacity:1" fill="#020202" d="M 210.5,269.5 C 221.2,267.926 230.866,270.259 239.5,276.5C 252.729,267.67 266.396,267.17 280.5,275C 290.259,282.548 300.926,288.548 312.5,293C 327.21,295.95 340.043,292.45 351,282.5C 352.637,290.914 350.97,298.581 346,305.5C 332.463,319.687 315.796,326.687 296,326.5C 273.776,326.3 254.943,318.3 239.5,302.5C 214.643,325.924 185.977,332.091 153.5,321C 142.25,316.802 134.084,309.302 129,298.5C 127.338,293.555 127.171,288.555 128.5,283.5C 138.099,291.534 149.099,295.034 161.5,294C 165.211,293.156 168.877,292.156 172.5,291C 180.766,286.396 188.766,281.396 196.5,276C 201.147,273.506 205.814,271.339 210.5,269.5 Z"/></g>
<g><path style="opacity:1" fill="#020202" d="M 415.5,370.5 C 391.116,402.89 360.116,426.557 322.5,441.5C 316.952,433.453 309.952,426.953 301.5,422C 260.5,421.333 219.5,421.333 178.5,422C 169.397,426.271 162.397,432.771 157.5,441.5C 149.424,439.466 141.758,436.3 134.5,432C 108.037,416.879 85.2035,397.379 66,373.5C 65.2086,372.255 64.7086,370.922 64.5,369.5C 69.8902,339.288 86.3902,317.621 114,304.5C 129.091,326.808 150.258,338.975 177.5,341C 187.09,346.425 197.09,351.092 207.5,355C 240.314,364.023 270.981,359.356 299.5,341C 305.484,339.907 311.484,338.907 317.5,338C 338.151,333.337 353.651,321.837 364,303.5C 370.201,306.017 376.034,309.183 381.5,313C 400.055,327.76 411.388,346.927 415.5,370.5 Z"/></g>
<g><path style="opacity:1" fill="#f0f0f0" d="M 343.5,340.5 C 357.992,339.152 363.826,345.485 361,359.5C 355.818,367.449 348.985,369.282 340.5,365C 335.85,360.426 334.35,354.926 336,348.5C 337.69,344.979 340.19,342.312 343.5,340.5 Z"/></g>
<g><path style="opacity:1" fill="#f3f3f3" d="M 124.5,342.5 C 129.179,342.334 133.845,342.501 138.5,343C 139.333,343.833 140.167,344.667 141,345.5C 142.112,352.642 142.946,359.808 143.5,367C 150.5,367.333 157.5,367.667 164.5,368C 167.602,370.968 168.935,374.634 168.5,379C 169.162,385.671 166.162,389.337 159.5,390C 153.843,390.499 148.176,390.666 142.5,390.5C 142.839,397.574 142.339,404.574 141,411.5C 138.173,413.961 134.84,414.961 131,414.5C 125.659,415.48 121.993,413.48 120,408.5C 119.501,402.509 119.334,396.509 119.5,390.5C 112.411,390.884 105.411,390.384 98.5,389C 93.3499,383.737 92.1833,377.57 95,370.5C 95.8333,369.667 96.6667,368.833 97.5,368C 104.826,367.5 112.159,367.334 119.5,367.5C 119.334,361.158 119.5,354.825 120,348.5C 120.804,345.854 122.304,343.854 124.5,342.5 Z"/></g>
<g><path style="opacity:1" fill="#f0f0f0" d="M 317.5,365.5 C 332.627,366.091 337.46,373.425 332,387.5C 324.667,394.167 317.333,394.167 310,387.5C 305.257,377.56 307.757,370.227 317.5,365.5 Z"/></g>
<g><path style="opacity:1" fill="#f0f0f0" d="M 371.5,366.5 C 384.158,365.326 389.991,370.992 389,383.5C 383.784,393.572 376.284,395.739 366.5,390C 362.758,385.483 361.591,380.316 363,374.5C 365.074,370.923 367.907,368.256 371.5,366.5 Z"/></g>
<g><path style="opacity:1" fill="#f1f1f1" d="M 344.5,393.5 C 351.331,392.051 356.831,394.051 361,399.5C 364.425,410.909 360.258,417.576 348.5,419.5C 336.985,416.471 333.485,409.471 338,398.5C 339.965,396.45 342.132,394.783 344.5,393.5 Z"/></g>
<g><path style="opacity:1" fill="#f6f6f6" d="M 322.5,441.5 C 324.322,443.823 326.322,445.989 328.5,448C 300.255,460.616 270.588,466.783 239.5,466.5C 209.358,466.605 180.358,460.938 152.5,449.5C 152.548,446.11 154.215,443.443 157.5,441.5C 162.397,432.771 169.397,426.271 178.5,422C 219.5,421.333 260.5,421.333 301.5,422C 309.952,426.953 316.952,433.453 322.5,441.5 Z"/></g>
</svg>
