<?xml version="1.0" encoding="UTF-8" standalone="no"?>
<!-- Generator: visioncortex VTracer 0.6.4 -->

<svg
   version="1.1"
   width="487.20374"
   height="499.46518"
   id="svg31"
   xmlns="http://www.w3.org/2000/svg"
   xmlns:svg="http://www.w3.org/2000/svg">
  <defs
     id="defs31" />
  <path
     d="m 310.875,96.933594 c 6.20592,6.205926 7.47941,17.025956 9.33203,25.269526 0.44122,1.9051 0.88245,3.8102 1.32436,5.71514 0.91957,3.97494 1.82604,7.95288 2.73124,11.9311 4.89002,21.48861 9.69949,42.59675 20.13581,62.15454 C 346,205.05859 346,205.05859 347,208.05859 c 0.66,-0.33 1.32,-0.66 2,-1 3.82593,-0.30282 7.66343,-0.28649 11.5,-0.3125 1.12825,-0.009 2.2565,-0.0189 3.41894,-0.0286 6.9691,0.042 13.1358,0.77169 19.83106,2.65356 6.90378,1.87069 11.50877,1.64625 17.95288,-1.67896 3.29712,-1.63354 3.29712,-1.63354 6.54517,-2.78979 4.83702,-1.79554 8.6575,-3.27485 11.67065,-7.59424 1.50189,-3.41387 2.67137,-6.81009 3.7688,-10.37451 0.43549,-1.28459 0.87585,-2.56753 1.3208,-3.84887 0.91511,-2.65715 1.80333,-5.32103 2.66992,-7.99439 1.70118,-5.2298 3.54635,-10.40638 5.39917,-15.58398 0.84125,-2.35676 1.67124,-4.71758 2.4878,-7.08301 5.92143,-16.96557 5.92143,-16.96557 11.18481,-21.98971 4.24172,-1.79457 7.71707,-2.32375 12.25,-1.375 3.85265,2.06947 6.35881,4.95928 8,9 -0.11204,8.88818 -3.41891,17.17196 -6.25,25.5 -0.39201,1.16705 -0.39201,1.16705 -0.79193,2.35767 -17.6789,52.56635 -17.6789,52.56635 -26.52057,57.76733 -0.56139,0.33411 -1.12277,0.66822 -1.70117,1.01245 -1.90629,1.13102 -3.82123,2.24652 -5.73633,3.36255 -1.48879,0.87804 -2.97706,1.75698 -4.46484,2.63672 -3.57634,2.11219 -7.15775,4.21541 -10.7461,6.30713 -1.56883,0.92614 -3.11822,1.88507 -4.66406,2.84912 -2.125,1.20703 -2.125,1.20703 -4.125,1.20703 3.96604,58.6333 3.96604,58.6333 8.9375,117.1875 0.1196,1.27388 0.2392,2.54775 0.36243,3.86023 1.25654,13.31617 2.56572,26.62701 3.89016,39.93656 0.66014,6.63576 1.3139,13.27214 1.96465,19.90883 0.39219,3.99227 0.78895,7.98397 1.19704,11.97465 2.91154,28.48732 2.91154,28.48732 3.15603,41.93301 0.0301,0.87803 0.0602,1.75606 0.0913,2.66069 -0.002,4.38606 -0.17494,6.00763 -3.00583,9.55098 -3.1797,2.43702 -4.84783,3.17143 -8.78076,3.30005 -0.73606,0.0374 -1.47211,0.0748 -2.23047,0.11328 -3.69207,-0.60883 -6.67813,-2.1157 -9.58203,-4.42578 -1.396,-2.948 -1.396,-2.948 -2.14844,-6.57422 -0.22241,-1.03153 -0.22241,-1.03153 -0.44931,-2.08391 -0.50819,-2.44104 -0.9596,-4.8881 -1.40225,-7.34187 -0.17358,-0.94152 -0.34716,-1.88304 -0.526,-2.85309 -1.45419,-7.97204 -2.7791,-15.96425 -4.099,-23.95941 -0.43094,-2.57938 -0.8626,-5.15864 -1.29492,-7.73779 -0.90251,-5.38686 -1.80153,-10.77429 -2.69824,-16.16211 -1.94579,-11.68626 -3.91512,-23.36854 -5.89114,-35.04971 -0.75873,-4.48607 -1.51319,-8.97284 -2.26658,-13.45981 -0.3975,-2.35574 -0.79511,-4.71145 -1.19287,-7.06714 -0.17667,-1.05686 -0.35334,-2.11371 -0.53537,-3.20259 -0.99702,-5.88335 -2.14893,-11.69483 -3.4959,-17.50835 -4.918,0.42884 -7.76035,2.90023 -11.3125,6.0625 -0.59523,0.51861 -1.19045,1.03721 -1.80371,1.57153 -5.81911,5.15005 -11.29811,10.6416 -16.72876,16.19629 -0.64413,0.65799 -1.28826,1.31597 -1.95191,1.9939 -0.57073,0.5887 -1.14146,1.1774 -1.72949,1.78393 C 337,373.05859 337,373.05859 335,374.05859 c 0.64311,3.97983 1.28672,7.95959 1.93115,11.93921 0.54888,3.38987 1.09582,6.78004 1.6416,10.17041 1.19504,7.40785 2.39622,14.81214 3.71631,22.19897 4.90662,27.51392 4.90662,27.51392 0.78906,33.47266 -3.35564,3.58272 -5.05964,4.13792 -10.01562,4.53125 -4.52356,-0.11771 -7.14037,-1.72495 -10.59131,-4.5752 -1.93907,-2.28981 -2.43225,-4.32246 -3.19775,-7.22168 -0.30543,-1.14476 -0.61086,-2.28953 -0.92554,-3.46899 -0.32106,-1.25289 -0.64211,-2.50578 -0.9729,-3.79663 -0.34297,-1.31182 -0.68616,-2.62359 -1.02954,-3.9353 -3.81548,-14.71094 -7.19445,-29.53084 -10.5603,-44.34986 -0.16632,-0.73213 -0.33263,-1.46426 -0.50399,-2.21858 -2.38075,-10.54411 -3.36073,-16.9627 2.21883,-26.49626 0.71966,-1.2682 0.71966,-1.2682 1.45386,-2.56201 1.66147,-2.90842 3.3504,-5.79942 5.04614,-8.68799 0.98734,-1.68561 0.98734,-1.68561 1.99463,-3.40527 3.41307,-5.81834 6.84953,-11.62245 10.30615,-17.41504 0.62028,-1.05985 1.24056,-2.1197 1.87964,-3.21167 1.81958,-2.96802 1.81958,-2.96802 3.64893,-5.39893 5.62517,-7.75906 4.52885,-15.45595 3.73315,-24.50659 -0.12123,-1.62661 -0.24001,-3.25341 -0.35645,-4.88037 -0.24698,-3.36929 -0.51486,-6.73605 -0.79736,-10.10254 -0.34442,-4.16061 -0.62374,-8.32202 -0.87465,-12.48921 -0.19243,-3.15397 -0.40848,-6.30604 -0.63002,-9.45809 -0.10131,-1.48475 -0.19533,-2.97003 -0.28143,-4.45575 -0.57216,-9.55569 -2.3972,-16.57098 -7.62259,-24.67654 -0.81923,-1.47247 -1.62495,-2.95258 -2.41406,-4.44141 -0.55047,-1.0213 -0.55047,-1.0213 -1.11206,-2.06323 -9.8293,-18.40727 -9.8293,-18.40727 -8.97388,-23.43286 0.7425,-1.51594 0.7425,-1.51594 1.5,-3.0625 0.70332,-1.86912 1.3894,-3.74478 2.0625,-5.625 0.3416,-0.92039 0.6832,-1.84078 1.03516,-2.78906 6.76073,-19.37491 1.08641,-43.87793 -3.97266,-63.14844 -0.23219,-0.89235 -0.46438,-1.7847 -0.70361,-2.7041 -1.73642,-6.24737 -4.013,-12.18894 -7.42139,-17.7334 -0.99,-0.495 -0.99,-0.495 -2,-1 0.32468,0.46656 0.64937,0.93312 0.98389,1.41382 3.4445,5.18586 5.46525,10.17533 7.14111,16.14868 0.25225,0.87044 0.50451,1.74088 0.7644,2.6377 4.10245,14.46798 6.29189,28.64388 6.3606,43.6748 0.0309,1.6803 0.0309,1.6803 0.0625,3.39453 0.0728,15.58972 -6.19197,26.51246 -15.125,38.85547 -4.05654,5.63994 -7.81723,11.32416 -11.125,17.4375 -0.51107,0.9158 -0.51107,0.9158 -1.03247,1.8501 -7.82234,14.96897 -8.73595,29.00722 -8.56592,45.54199 0.005,2.27182 0.007,4.54364 0.007,6.81546 0.006,4.86066 0.0269,9.72089 0.0609,14.58143 0.0536,7.69116 0.0717,15.38216 0.0854,23.07348 0.0229,10.78472 0.0618,21.56924 0.11482,32.35385 0.0544,11.07485 0.10401,22.14969 0.14356,33.22461 0.004,1.02469 0.004,1.02469 0.007,2.07007 0.0404,11.40689 0.0726,22.81379 0.1012,34.2207 0.0202,7.641 0.0523,15.28183 0.0945,22.92273 0.0245,4.75317 0.0409,9.50635 0.0554,14.25956 0.008,2.19859 0.0205,4.39716 0.0364,6.5957 0.0213,3.00849 0.0299,6.01677 0.0357,9.02532 0.009,0.86266 0.0185,1.72532 0.028,2.61412 -0.0159,14.4453 -0.0159,14.4453 -4.23486,19.85088 -4.40119,3.16336 -8.71363,3.15911 -14,2.4375 -3.36667,-1.64912 -5.46986,-3.90815 -7.12123,-7.30925 -0.95943,-2.93773 -1.25717,-5.47125 -1.43907,-8.55525 -0.0732,-1.18853 -0.14632,-2.37706 -0.2217,-3.60161 -0.0707,-1.30669 -0.1413,-2.61338 -0.21409,-3.95967 -0.0815,-1.40727 -0.16332,-2.81452 -0.24547,-4.22176 -1.09417,-19.16043 -1.87355,-38.33883 -2.69173,-57.51256 -0.34367,-8.05219 -0.69031,-16.10425 -1.04098,-24.15615 -0.11984,-2.76985 -0.23697,-5.5398 -0.35387,-8.30977 -0.39254,-9.14255 -0.8774,-18.25588 -1.67186,-27.37398 -1.32,0 -2.64,0 -4,0 -0.5072,8.86293 -0.5072,8.86293 -1.01399,17.72589 -0.40277,7.04628 -0.80586,14.09253 -1.21065,21.13869 -0.90089,15.68466 -1.7946,31.36946 -2.63864,47.05729 -0.19341,3.55614 -0.38722,7.11226 -0.58114,10.66837 -0.11901,2.20608 -0.23595,4.41228 -0.35065,6.61859 -1.0074,19.36775 -1.0074,19.36775 -2.07211,28.49039 -0.13262,1.13913 -0.26523,2.27826 -0.40186,3.4519 -0.9965,3.88384 -2.80429,5.7627 -6.07471,7.96607 -4.24698,2.26372 -7.86826,2.61178 -12.65625,1.88281 -4.27138,-3.08993 -5.68539,-5.99518 -7,-11 -0.26638,-2.93688 -0.25319,-5.85338 -0.22705,-8.8006 -3e-4,-0.87447 -5.9e-4,-1.74895 -9e-4,-2.64992 0.001,-2.92447 0.0171,-5.84869 0.0326,-8.77311 0.004,-2.09973 0.007,-4.19946 0.009,-6.2992 0.006,-4.52126 0.0189,-9.04246 0.0361,-13.56369 0.0271,-7.16328 0.0388,-14.32652 0.0483,-21.48983 0.0241,-16.51481 0.0681,-33.02955 0.11246,-49.54432 0.0404,-15.1062 0.0766,-30.21239 0.0964,-45.31864 0.01,-7.10518 0.0295,-14.21025 0.0569,-21.31538 0.015,-4.44547 0.0216,-8.89093 0.0259,-13.33642 0.004,-2.04363 0.0108,-4.08725 0.0219,-6.13085 0.05,-9.58187 -0.0385,-19.12565 -0.9073,-28.67422 -0.0521,-0.71271 -0.1041,-1.42542 -0.15773,-2.15973 -0.74762,-6.90672 -4.51165,-11.85182 -9.21288,-16.79956 -0.74661,-0.80123 -0.74661,-0.80123 -1.5083,-1.61865 -0.47034,-0.50354 -0.94069,-1.00708 -1.42529,-1.52588 -21.35542,-24.42147 -28.08781,-49.08337 -28.375,-81.1875 -0.0139,-1.00925 -0.0279,-2.01851 -0.0422,-3.05835 0.0435,-6.62002 0.9921,-10.11502 5.54224,-15.06665 4.00435,-2.35037 7.33601,-2.37247 11.875,-1.6875 3.73698,1.62478 5.84763,3.55622 8,7 1.05482,3.16447 1.24843,5.7131 1.42969,9.03907 0.0712,1.2126 0.14244,2.42521 0.21582,3.67456 0.1136,1.93613 0.1136,1.93613 0.22949,3.91137 1.4024,21.3839 2.95913,35.7619 18.63672,51.22266 2.3667,2.32374 2.3667,2.32374 5.48828,3.15234 1.83238,-0.69146 3.66339,-1.3867 5.48828,-2.09766 7.47755,-2.68633 14.44499,-4.13806 22.36719,-3.59765 10.36174,1.14211 10.36174,1.14211 20.13818,-1.42383 3.44048,-3.05502 5.66825,-6.80668 7.84864,-10.81836 1.20579,-2.14816 2.53774,-4.139 3.95068,-6.15625 5.41442,-7.742 9.59859,-13.77749 9.51953,-23.53125 -0.006,-0.74217 -0.0113,-1.48435 -0.0171,-2.24902 -0.27021,-12.8064 -2.79337,-24.89943 -6.48286,-37.12598 -4.83517,-16.04445 -4.83517,-16.04445 -1.5625,-24.0625 3.39942,-3.76364 6.82153,-4.26543 11.75,-4.9375 -0.495,-0.989996 -0.495,-0.989996 -1,-1.999996 5.27204,-3.05608 11.13537,-2.871845 16.875,-1.125 z"
     fill="#ffffff"
     id="path1" />
  <path
     d="m 31.1875,130.30859 c 9.495682,9.28467 12.650907,28.61047 16.798584,40.92603 5.720448,20.85381 5.720448,20.85381 20.162353,35.39429 0.858516,0.38929 1.717032,0.77859 2.601563,1.17968 1.26457,0.65356 1.26457,0.65356 2.554687,1.32032 5.398138,2.59176 9.227131,3.2417 15.123536,2.31494 4.603578,-0.68962 9.237748,-0.57587 13.884277,-0.57276 1.00168,-6.4e-4 2.00336,-0.001 3.0354,-0.002 7.38917,0.0526 14.41088,0.6328 21.6521,2.18946 9.49399,-13.96175 13.14159,-29.32762 17.13428,-45.50391 1.35865,-5.48673 2.76421,-10.96092 4.17822,-16.43359 0.36352,-1.43751 0.36352,-1.43751 0.73438,-2.90406 0.22816,-0.88631 0.45632,-1.77262 0.6914,-2.68579 0.19634,-0.77078 0.39268,-1.54155 0.59497,-2.33569 1.1605,-3.71946 2.26802,-5.78686 5.22925,-8.38696 4.32618,-2.20242 7.66981,-2.51248 12.4375,-1.75 3.0625,1.5 3.0625,1.5 5,3 -0.77023,4.62135 -0.77023,4.62135 -2.02417,6.68774 -1.39648,3.309 -1.23546,6.52737 -1.21411,10.05835 -0.0112,1.56511 -0.0238,3.13022 -0.0376,4.69531 -0.007,1.22421 -0.007,1.22421 -0.0149,2.47315 -0.1288,14.99725 -1.07569,28.72724 -5.70917,43.08545 -0.5362,1.78744 -1.07132,3.57522 -1.60547,5.36328 -7.80228,25.35005 -7.80228,25.35005 -15.33644,33.81977 -8.32789,10.07018 -7.12205,20.85333 -6.94701,33.31475 0.004,2.37786 0.004,4.75573 9.8e-4,7.13359 6.9e-4,5.10104 0.0261,10.20112 0.0709,15.30196 0.0639,7.38008 0.0795,14.75945 0.0802,22.13977 0.002,11.98383 0.034,23.96736 0.0906,35.95105 0.003,0.71563 0.007,1.43126 0.0102,2.16858 0.0172,3.62679 0.0347,7.25359 0.0524,10.88038 0.0354,7.27175 0.0684,14.54352 0.0995,21.8153 0.003,0.71687 0.006,1.43374 0.009,2.17234 0.0503,11.95028 0.0731,23.90047 0.0771,35.85086 0.004,8.01915 0.0448,16.03696 0.1112,24.05588 0.0345,4.97916 0.0403,9.95806 0.0383,14.93732 0.005,2.31199 0.0223,4.62399 0.0523,6.93579 0.0394,3.15144 0.0359,6.30002 0.0218,9.4516 0.0329,1.37829 0.0329,1.37829 0.0665,2.78442 -0.0891,6.03198 -0.0891,6.03198 -2.41263,8.6101 -5.09021,3.77401 -9.2646,4.23479 -15.47982,3.31326 -3.5,-1.125 -3.5,-1.125 -6,-3 -2.02238,-4.76055 -2.5633,-9.56594 -2.99609,-14.67188 -0.081,-0.92649 -0.16201,-1.85298 -0.24547,-2.80755 -1.37199,-16.91416 -1.94742,-33.89502 -2.69173,-50.84558 -0.17158,-3.88407 -0.34753,-7.76794 -0.52371,-11.6518 -1.43806,-31.7117 -1.43806,-31.7117 -1.85111,-43.47827 -0.0437,-1.23015 -0.0874,-2.46029 -0.13243,-3.72772 -0.0761,-2.20822 -0.14798,-4.4166 -0.21475,-6.62512 -0.0318,-0.93963 -0.0636,-1.87925 -0.0964,-2.84735 -0.0243,-0.80033 -0.0487,-1.60066 -0.0737,-2.42524 -0.0647,-2.00331 -0.0647,-2.00331 -1.17458,-3.91949 -1.32,0.33 -2.64,0.66 -4,1 -0.0582,1.14861 -0.11639,2.29721 -0.17636,3.48062 -0.55611,10.96903 -1.11477,21.93792 -1.67577,32.9067 -0.28815,5.63548 -0.57548,11.271 -0.86076,16.90663 -2.179219,43.0245 -2.179219,43.0245 -3.326168,61.16699 -0.06851,1.14522 -0.137023,2.29044 -0.207611,3.47036 -1.269334,19.10555 -1.269334,19.10555 -5.253326,23.1937 -3.838964,2.87922 -6.378871,3.32369 -11.105469,3.30078 -4.12327,-0.73317 -6.708914,-3.34052 -9.394531,-6.42578 -1.665612,-3.33122 -1.128755,-7.06838 -1.113525,-10.73045 -1.49e-4,-0.91527 -2.98e-4,-1.83054 -4.51e-4,-2.77355 6.97e-4,-3.0865 0.0086,-6.17294 0.01632,-9.25943 0.0019,-2.20589 0.0034,-4.41178 0.0044,-6.61767 0.0032,-4.76304 0.0095,-9.52606 0.01807,-14.28909 0.0135,-7.54549 0.01941,-15.09097 0.02414,-22.63647 0.0073,-10.59513 0.01746,-21.19025 0.03052,-31.78538 8.28e-4,-0.67276 0.0017,-1.34551 0.0025,-2.03865 0.0067,-5.44891 0.01365,-10.89782 0.0206,-16.34673 0.006,-4.73807 0.01203,-9.47615 0.0179,-14.21423 8.28e-4,-0.66678 0.0017,-1.33356 0.0025,-2.02055 0.01375,-11.17032 0.02343,-22.34065 0.0304,-33.51098 0.005,-7.48453 0.01478,-14.96904 0.02843,-22.45356 0.0075,-4.68589 0.01079,-9.37178 0.01297,-14.05767 0.0019,-2.15447 0.0054,-4.30893 0.01093,-6.46338 0.02514,-10.15182 -0.01697,-20.30178 -0.395298,-30.44761 -0.0182,-0.77932 -0.0364,-1.55864 -0.05516,-2.36158 -0.213226,-4.59833 -0.907639,-7.28776 -4.120134,-10.62974 -2.14526,-1.63909 -2.14526,-1.63909 -4.472656,-3.05078 -0.771826,-0.55414 -1.543652,-1.10827 -2.338867,-1.6792 -1.523455,-1.09133 -3.063069,-2.16053 -4.619629,-3.2041 -2.756772,-1.87282 -5.28556,-3.93034 -7.853625,-6.05416 -2.214947,-1.7608 -4.405663,-3.48416 -6.723145,-5.10937 -2.918069,-2.6164 -3.751574,-4.48715 -5.034668,-8.16406 -0.424021,-1.18731 -0.848042,-2.37462 -1.284912,-3.5979 -0.444323,-1.29281 -0.888409,-2.5857 -1.332275,-3.87867 -0.471765,-1.33708 -0.945181,-2.67358 -1.420166,-4.00952 -0.990256,-2.78849 -1.973278,-5.5794 -2.952393,-8.37182 -1.466192,-4.16311 -2.985609,-8.30523 -4.521972,-12.44288 -0.245949,-0.66344 -0.491898,-1.32688 -0.745301,-2.01043 -1.174849,-3.16769 -2.351963,-6.33451 -3.530578,-9.5008 C 9.938195,144.56215 9.938195,144.56215 11,138.05859 c 4.440389,-8.55186 11.229498,-11.26294 20.1875,-7.75 z"
     fill="#ffffff"
     id="path2" />
  <path
     d="m 230,-5e-8 c 2.83386,1.49995215 4.53041,3.51676375 6.625,5.93359375 1.16402,1.3264454 1.16402,1.3264454 2.35156,2.6796876 C 241,11.058594 241,11.058594 243,14.058594 c 0.5775,-0.309375 1.155,-0.61875 1.75,-0.9375 2.09904,-0.991214 4.00074,-1.537988 6.25,-2.0625 0.65484,0.836601 1.30969,1.673203 1.98437,2.535156 4.99243,6.369898 10.0096,12.717797 15.07813,19.027344 4.5471,5.665097 9.00382,11.391094 13.41797,17.160156 2.77045,3.614252 5.57965,7.19764 8.39453,10.777344 0.67881,0.86347 0.67881,0.86347 1.37134,1.744385 1.99764,2.53741 4.00514,5.056121 6.07788,7.532958 1.67578,2.222657 1.67578,2.222657 1.61328,4.285157 -1.06921,2.209699 -2.44636,3.993762 -3.9375,5.9375 0.97453,1.156289 0.97453,1.156289 1.96875,2.335937 0.83531,1.002891 1.67062,2.005781 2.53125,3.039063 0.83531,0.997734 1.67062,1.995468 2.53125,3.023437 C 304,91.058594 304,91.058594 304,93.058594 c -3.29258,1.646289 -5.35172,1.53827 -9,1 -2.76378,-2.351351 -5.00062,-4.973579 -7,-8 0,-0.66 0,-1.32 0,-2 -0.70907,0.312275 -1.41813,0.624551 -2.14868,0.946289 C 259.79876,96.418585 259.79876,96.418585 247,99.058594 c 5.90949,5.294376 13.17941,7.197696 21.11328,6.928226 4.34127,-0.38592 8.60836,-1.09532 12.88672,-1.92823 -0.31113,2.87796 -0.63134,4.57669 -2.55469,6.78516 -3.47294,1.72537 -6.77502,1.70496 -10.57031,1.65234 -0.76192,-0.008 -1.52383,-0.0166 -2.30884,-0.0251 -8.73419,-0.26094 -14.58257,-2.86716 -21.56616,-8.0374 -5.47637,-4.01943 -10.62146,-5.064356 -17.3125,-5.539059 -5.69053,-0.691557 -7.97869,-2.846612 -11.625,-7.273437 -4.74939,-6.290632 -6.20437,-9.230611 -5.375,-17.0625 0.59928,-7.090723 0.13984,-11.999376 -3.46094,-18.335938 C 202.00145,48.768154 203.29911,38.57381 205.375,30.621094 208.16227,22.494813 220.33817,0.28306148 230,-5e-8 Z M 225.57422,13.402344 c -0.97006,1.044881 -1.93186,2.097465 -2.88672,3.15625 -0.74431,0.821052 -0.74431,0.821052 -1.50366,1.658691 -7.98492,8.960486 -11.55452,16.48909 -11.38697,28.692871 0.23897,3.704008 0.91389,6.683598 2.20313,10.148438 3.1362,-0.667609 3.1362,-0.667609 4.18359,-3.160157 0.41379,-0.957773 0.82758,-1.915546 1.25391,-2.902343 3.70415,-7.780574 8.84885,-14.279536 14.12158,-21.053223 2.2239,-2.908179 4.33145,-5.892317 6.44092,-8.884277 -1.28419,-1.672434 -2.57757,-3.337815 -3.875,-5 -0.7193,-0.928125 -1.43859,-1.85625 -2.17969,-2.8125 -0.64195,-0.721875 -1.2839,-1.44375 -1.94531,-2.1875 -2.32246,-0.231614 -2.32246,-0.231614 -4.42578,2.34375 z M 281,67.058594 c -0.73936,0.460558 -0.73936,0.460558 -1.49365,0.93042 C 263.08249,78.194035 247.37833,87.003656 228,90.058594 c 6.03038,4.020252 14.56328,1.520702 21.41016,0.199218 12.39653,-2.71577 25.27688,-7.664943 35.58984,-15.199218 0.33,-0.99 0.66,-1.98 1,-3 -2.475,-2.475 -2.475,-2.475 -5,-5 z"
     fill="#ffffff"
     id="path3" />
  <path
     d="m 116.78906,147.73828 c 7.1435,4.26591 12.02686,9.58559 15.21094,17.32032 2.36527,9.43097 1.54816,18.6297 -3.1836,27.125 -4.50031,6.73134 -11.17488,11.04846 -18.9414,13.25 -9.75184,1.57287 -17.776931,-1.3e-4 -26.246096,-5.14844 -6.337915,-4.77244 -10.345024,-11.43237 -11.628906,-19.22656 -0.724482,-9.97556 0.07488,-17.78777 6.5,-25.6875 10.419886,-10.7792 24.325912,-14.26647 38.289062,-7.63282 z"
     fill="#ffffff"
     id="path4" />
  <path
     d="m 393,146.05859 c 6.60031,5.19746 10.37112,11.11335 13,19 0.75075,10.5538 -0.30307,18.49309 -7,27 -7.39657,7.67662 -13.84602,10.27186 -24.4375,10.5 -6.95804,-0.03 -12.07379,-0.92415 -17.5625,-5.5 -0.64324,-0.53109 -1.28648,-1.06218 -1.94922,-1.60937 -5.47074,-5.00051 -9.63779,-11.62429 -10.28906,-19.14063 -0.23762,-10.40532 1.162,-18.40306 8.42578,-26.1875 10.68427,-9.64696 27.19062,-12.11516 39.8125,-4.0625 z"
     fill="#ffffff"
     id="path5" />
  <path
     d="m 259.99219,146.9375 c 7.30145,4.07688 12.50818,11.113 15.00781,19.1211 0.89584,11.04093 0.5803,19.85641 -6.5625,28.6875 -5.45897,5.82089 -12.36154,9.7858 -20.4375,10.3125 -1.82531,0.15468 -1.82531,0.15468 -3.6875,0.3125 -8.30444,-0.15879 -15.65734,-3.7144 -21.58984,-9.37891 -7.20475,-8.08697 -8.20226,-15.41336 -7.99219,-25.94531 0.56277,-8.32733 3.93376,-13.60455 10.02344,-19.19141 10.34853,-8.27882 23.12331,-9.69557 35.23828,-3.91797 z"
     fill="#ffffff"
     id="path6" />
  <path
     d="m 173.04321,83.19458 c 2.38141,1.051506 3.42975,2.19797 5.05835,4.223388 0.56735,0.6969 1.1347,1.393799 1.71924,2.111817 0.59538,0.752007 1.19077,1.504013 1.8042,2.278808 0.62245,0.771343 1.24491,1.542686 1.88623,2.337403 4.40468,5.480606 8.71451,11.031594 12.96142,16.635254 1.87929,2.46291 3.8136,4.87414 5.77344,7.27344 0.55091,0.67659 1.10183,1.35319 1.66943,2.05029 1.07411,1.31485 2.15363,2.62531 3.23926,3.93066 2.42712,2.97702 4.10757,5.25079 4.84522,9.02295 -2.04632,1.73173 -4.10818,3.43373 -6.1875,5.125 -0.57815,0.49371 -1.15629,0.98743 -1.75196,1.4961 -1.72851,1.38672 -1.72851,1.38672 -5.06054,3.3789 -4.62114,-0.90298 -7.55651,-3.95691 -11,-7 2.85276,-2.932 5.65079,-5.64315 9,-8 -1.57259,-5.38718 -5.18601,-9.12628 -8.75,-13.3125 -4.59299,-5.44444 -9.04124,-10.93882 -13.25,-16.687496 -4.59307,1.485991 -7.4357,3.850146 -11,6.999996 1.46174,4.34508 3.80291,7.63946 6.625,11.1875 0.44005,0.56445 0.8801,1.1289 1.33349,1.71045 3.46388,4.42822 7.02567,8.77491 10.64307,13.07862 C 184,133.05859 184,133.05859 184,136.05859 c -7.38132,-0.62553 -7.38132,-0.62553 -10.375,-2.4375 -2.77993,-1.65471 -4.22351,-1.7856 -7.375,-2.125 -6.96476,-1.26913 -10.136,-6.03786 -14.25,-11.4375 -0.41766,-0.54205 -0.83532,-1.0841 -1.26563,-1.64257 -2.62858,-3.41637 -5.19995,-6.87035 -7.73437,-10.35743 3.58937,-8.24294 12.92298,-13.637649 19.8125,-19.062497 0.74129,-0.596755 1.48258,-1.19351 2.24633,-1.808349 0.70891,-0.549221 1.41781,-1.098443 2.1482,-1.664307 0.63398,-0.498948 1.26795,-0.997895 1.92114,-1.511963 C 171,83.058593 171,83.058593 173.04321,83.19458 Z"
     fill="#ffffff"
     id="path7" />
  <path
     d="m 253,3.0585938 c 7.80199,3.4186598 12.51158,11.9694322 17.41797,18.5976562 2.90027,3.866643 5.95741,7.600966 9.01953,11.339844 5.19227,6.348517 10.27231,12.759134 15.22217,19.299805 1.53187,2.014597 3.07897,4.017132 4.62549,6.020507 1.1137,1.455404 2.22699,2.911129 3.33984,4.367188 0.80063,1.031572 0.80063,1.031572 1.61743,2.083984 0.48976,0.645176 0.97953,1.290352 1.48413,1.955078 0.43909,0.571861 0.87818,1.143721 1.33057,1.732911 C 308,70.058594 308,70.058594 308,73.058594 c -2.0625,0.9375 -2.0625,0.9375 -5,1 -6.03748,-4.278989 -10.50321,-11.222924 -15,-17 -0.8548,-1.087769 -1.7103,-2.174984 -2.56641,-3.261719 -2.34036,-2.971786 -4.67596,-5.947271 -7.01025,-8.923828 -1.8508,-2.359368 -3.70344,-4.717277 -5.5564,-7.074951 -0.9096,-1.157512 -1.81894,-2.315226 -2.72802,-3.473145 -2.36185,-3.007947 -4.72769,-6.012632 -7.09986,-9.012451 -0.48791,-0.618105 -0.97582,-1.236211 -1.47851,-1.873047 -0.92187,-1.1677 -1.84495,-2.334451 -2.76953,-3.5 C 255.73399,16.063497 252.84566,12.09249 250,8.0585938 c 1.875,-3.8750001 1.875,-3.8750001 3,-5 z"
     fill="#ffffff"
     id="path8" />
  <path
     d="m 174,75.058594 c 3.80615,0.184499 4.90052,0.892881 7.54297,3.738281 0.89421,1.181907 1.77502,2.374028 2.64453,3.574219 0.97359,1.292924 1.94888,2.584571 2.92578,3.875 0.48549,0.647109 0.97099,1.294219 1.47119,1.960938 2.01025,2.629485 4.14517,5.144223 6.29053,7.664062 5.25416,6.251366 10.19071,12.728066 15.11328,19.242186 2.89638,3.82499 5.91499,7.53847 9.03516,11.18359 0.97656,1.76172 0.97656,1.76172 0.64062,3.99219 -0.32871,0.87592 -0.32871,0.87592 -0.66406,1.76953 -3.80299,-0.19396 -4.98856,-0.9888 -7.76172,-3.70312 -0.98852,-1.17123 -1.96308,-2.35434 -2.92578,-3.54688 -0.52328,-0.6297 -1.04656,-1.25941 -1.58569,-1.9082 -4.19824,-5.08908 -8.24495,-10.29434 -12.2229,-15.55664 -2.19125,-2.89411 -4.44547,-5.73351 -6.71167,-8.569092 C 176.25293,84.293374 176.25293,84.293374 173,78.058594 c 0.33,-0.99 0.66,-1.98 1,-3 z"
     fill="#ffffff"
     id="path10" />
  <path
     d="m 208.3125,86.933594 c 4.23614,1.773268 6.20498,5.379894 8.6875,9.125 -1.15173,2.468 -2.04784,4.047836 -4,5.999996 -0.46162,2.43253 -0.46162,2.43253 -0.625,5.125 -0.0748,0.91008 -0.14953,1.82016 -0.22656,2.75782 -0.049,0.69867 -0.098,1.39734 -0.14844,2.11718 -3.77555,-0.20226 -4.87852,-0.86903 -7.5,-3.69531 -0.8476,-1.13269 -1.68043,-2.27655 -2.5,-3.42969 -0.43425,-0.59023 -0.86851,-1.18046 -1.31592,-1.78857 -0.85469,-1.16513 -1.70368,-2.33447 -2.54639,-3.508301 -0.94538,-1.311367 -1.91721,-2.603623 -2.8955,-3.890625 C 192,91.447879 192,91.447879 192,88.058594 c 6.54676,-0.1259 6.54676,-0.1259 9.25,0.625 0.5775,0.12375 1.155,0.2475 1.75,0.375 3,-2 3,-2 5.3125,-2.125 z"
     fill="#ffffff"
     id="path11" />
  <path
     d="m 136,105.05859 c 1.32,0 2.64,0 4,0 1.94155,2.06516 3.5808,4.04327 5.25,6.3125 0.47728,0.6314 0.95455,1.2628 1.44629,1.91333 0.97409,1.2932 1.94252,2.59068 2.90527,3.89234 1.28956,1.73532 2.60349,3.44789 3.92969,5.15527 0.73219,0.96164 1.46437,1.92328 2.21875,2.91406 0.65484,0.85981 1.30969,1.71961 1.98437,2.60547 0.41766,0.72832 0.83532,1.45664 1.26563,2.20703 -0.33,0.99 -0.66,1.98 -1,3 -2.0625,0.4375 -2.0625,0.4375 -5,0 -5.26247,-4.25782 -9.44388,-9.81465 -13.5,-15.1875 -0.54914,-0.69802 -1.09828,-1.39605 -1.66406,-2.11523 -0.51305,-0.6774 -1.0261,-1.35481 -1.55469,-2.05273 -0.46342,-0.60482 -0.92684,-1.20963 -1.4043,-1.83277 C 134,110.05859 134,110.05859 134.29492,107.89331 135,106.05859 135,106.05859 136,105.05859 Z"
     fill="#ffffff"
     id="path12" />
  <path
     d="m 57.179687,85.160156 c 2.832569,1.398049 4.160283,3.254686 5.820313,5.898437 -0.401047,4.659782 -3.656807,7.201058 -6.871094,10.277347 -2.765025,2.23738 -4.558573,3.04723 -8.128906,2.72265 -2.437501,-1.5625 -2.437501,-1.5625 -4.000001,-4 0.136956,-3.834739 0.677873,-5.610979 3.144532,-8.589841 0.880429,-0.774726 1.760859,-1.549453 2.667969,-2.347656 0.872695,-0.792773 1.74539,-1.585547 2.644531,-2.402344 C 55,85.058593 55,85.058593 57.179687,85.160156 Z"
     fill="#ffffff"
     id="path13" />
  <path
     d="m 445,55.058594 c 5.94,0 11.88,0 18,0 0.33,3.3 0.66,6.6 1,10 -6.27,0 -12.54,0 -19,0 0,-3.3 0,-6.6 0,-10 z"
     fill="#ffffff"
     id="path14" />
  <path
     d="m 397.37109,26.164063 c 3.52107,1.198106 4.7344,3.001892 6.94141,5.957031 0.69738,0.919102 1.39476,1.838203 2.11328,2.785156 0.77924,1.06541 0.77924,1.06541 1.57422,2.152344 -1.36984,3.161158 -1.98907,3.992709 -5,6 -2.41407,0.457031 -2.41407,0.457031 -5,0 -2.27344,-2.300781 -2.27344,-2.300781 -4.375,-5.3125 -0.70899,-0.986133 -1.41797,-1.972266 -2.14844,-2.988281 -0.48727,-0.890742 -0.97453,-1.781485 -1.47656,-2.699219 1.31219,-3.936592 3.0032,-6.08882 7.37109,-5.894531 z"
     fill="#ffffff"
     id="path15" />
  <path
     d="m 97,98.058594 c 3.59657,0.61726 5.81778,2.097366 8.6875,4.312496 1.18143,0.89139 1.18143,0.89139 2.38672,1.80078 2.07084,2.02884 2.76358,3.00761 2.92578,5.88672 -1.9375,2.75 -1.9375,2.75 -4,5 -3.76119,-0.62393 -6.1896,-2.34773 -9.25,-4.5625 -0.892031,-0.64066 -1.784063,-1.28132 -2.703125,-1.9414 -0.675469,-0.49371 -1.350938,-0.98742 -2.046875,-1.4961 0.651792,-3.81583 1.46899,-6.02881 4,-8.999996 z"
     fill="#ffffff"
     id="path16" />
  <path
     d="m 88,44.058594 c 4.007352,0.601103 6.554694,2.66602 9.75,5.0625 0.984844,0.733476 1.969687,1.466953 2.98438,2.222656 0.74765,0.565898 1.49531,1.131797 2.26562,1.714844 -1.41792,2.934469 -2.98333,5.433324 -5,8 -3.952052,-0.581727 -6.220951,-2.551577 -9.25,-5.0625 C 87.857969,55.262617 86.965937,54.529141 86.046875,53.773438 85.371406,53.207539 84.695937,52.641641 84,52.058594 c 1.124517,-2.971939 2.222938,-5.334407 4,-8 z"
     fill="#ffffff"
     id="path17" />
  <path
     d="m 174.0625,12.871094 c 4.59741,0.03684 8.53368,0.906387 12.9375,2.1875 -0.14049,1.479683 -0.28755,2.958745 -0.4375,4.4375 -0.0812,0.823711 -0.16242,1.647422 -0.24609,2.496094 C 186,24.058594 186,24.058594 185,25.058594 c -5.886,-0.146586 -11.42016,-1.180488 -17,-3 1.01602,-9.14422 1.01602,-9.14422 6.0625,-9.1875 z"
     fill="#ffffff"
     id="path18" />
  <path
     d="m 7.304687,80.292969 c 2.982171,0.847109 4.9767,2.052568 7.507813,3.828125 0.790195,0.547851 1.58039,1.095703 2.394531,1.660156 0.591679,0.421523 1.183359,0.843047 1.792969,1.277344 -0.651793,3.815834 -1.46899,6.028814 -4,9 C 10.49656,95.547393 8.1247452,93.88338 4.6874995,90.996094 3.8044917,90.262617 2.9214839,89.529141 2.0117183,88.773438 1.3478511,88.207539 0.6839839,87.641641 -5e-7,87.058594 3.4809571,79.904115 3.4809571,79.904115 7.304687,80.292969 Z"
     fill="#ffffff"
     id="path19" />
  <path
     d="m 484,86.058594 c 3.44419,10.373576 3.44419,10.373576 3,15.999996 -3.78188,1.83692 -5.94568,2.15838 -10,1 -1.59162,-5.570669 -2.20675,-10.211012 -2,-15.999996 2.95665,-1.478323 5.7423,-1.060328 9,-1 z"
     fill="#ffffff"
     id="path20" />
  <path
     d="m 106.5625,70.871094 c 4.3966,0.03975 8.22073,0.982708 12.4375,2.1875 0.0269,1.479069 0.0464,2.958275 0.0625,4.4375 0.0116,0.823711 0.0232,1.647422 0.0352,2.496094 C 119,82.058594 119,82.058594 118,83.058594 c -5.886,-0.146586 -11.42016,-1.180488 -17,-3 0.99412,-8.947059 0.99412,-8.947059 5.5625,-9.1875 z"
     fill="#ffffff"
     id="path21" />
  <path
     d="m 309.40234,24.167969 c 3.48709,1.195575 4.43215,2.889157 6.41016,5.953125 0.60457,0.919101 1.20914,1.838203 1.83203,2.785156 0.4473,0.710273 0.89461,1.420547 1.35547,2.152344 -1.36984,3.161158 -1.98907,3.992709 -5,6 -3.27985,-0.141463 -4.64538,-0.667627 -7.05469,-2.925781 -0.6007,-0.787617 -1.20141,-1.575235 -1.82031,-2.386719 -0.61618,-0.779883 -1.23235,-1.559766 -1.86719,-2.363281 C 302,31.058594 302,31.058594 302.19531,28.878906 c 1.49535,-3.382685 3.49227,-4.880065 7.20703,-4.710937 z"
     fill="#ffffff"
     id="path22" />
  <path
     d="m 429,11.058594 c 1.74795,5.243851 2.19392,9.473222 2,15 -3.52948,1.6667 -5.28272,2.135835 -9,1 -0.50806,-1.726814 -1.0061,-3.45658 -1.5,-5.1875 -0.41766,-1.444395 -0.41766,-1.444395 -0.84375,-2.917969 -0.62303,-2.74799 -0.77928,-5.090515 -0.65625,-7.894531 3.69542,-0.95025 6.30458,-0.95025 10,0 z"
     fill="#ffffff"
     id="path23" />
  <path
     d="m 392.84766,55.960938 c 2.05078,0.03255 4.10156,0.0651 6.15234,0.09766 0.53252,1.913453 1.0506,3.83093 1.5625,5.75 0.29004,1.067344 0.58008,2.134687 0.87891,3.234375 0.52958,2.858985 0.5423,4.331599 -0.44141,7.015625 -6.46148,1.341062 -6.46148,1.341062 -8.875,-0.1875 -2.07004,-3.335063 -2.26276,-6.637603 -2.25,-10.5 -0.003,-0.787617 -0.005,-1.575234 -0.008,-2.386719 0.17662,-2.560997 0.41022,-2.887589 2.98047,-3.023437 z"
     fill="#ffffff"
     id="path24" />
  <path
     d="m 425,90.058594 c 5.44208,0.34013 8.93668,3.702965 13,7 -0.66,1.98 -1.32,3.959996 -2,5.999996 -3.11251,0.96748 -4.48016,1.25703 -7.45703,-0.21484 -0.77731,-0.56848 -1.55461,-1.13695 -2.35547,-1.72266 -0.7902,-0.56589 -1.58039,-1.131793 -2.39453,-1.71484 -0.59168,-0.444727 -1.18336,-0.889453 -1.79297,-1.347656 0.54724,-3.374627 1.0549,-5.08235 3,-8 z"
     fill="#ffffff"
     id="path25" />
  <path
     d="m 366,71.058594 c 5.15465,0.483248 8.8155,3.186107 13,6 -0.875,5.75 -0.875,5.75 -2,8 -5.7098,-0.41779 -8.60957,-2.575466 -13,-6 0.875,-5.75 0.875,-5.75 2,-8 z"
     fill="#ffffff"
     id="path26" />
  <path
     d="m 109,21.058594 c 0,2.64 0,5.28 0,8 -3.21182,1.906081 -5.53883,2.222662 -9.25,2.125 -0.892031,-0.01805 -1.784062,-0.03609 -2.703125,-0.05469 -1.013203,-0.0348 -1.013203,-0.0348 -2.046875,-0.07031 -0.66,-2.64 -1.32,-5.28 -2,-8 5.454612,-1.385298 10.36718,-2.239695 16,-2 z"
     fill="#ffffff"
     id="path27" />
  <path
     d="m 327,15.058594 c 6.14689,0.368813 8.69027,1.900504 13,6 -0.75,4.75 -0.75,4.75 -3,7 -5.56246,-0.12642 -8.09893,-2.377574 -12,-6 0.875,-4.75 0.875,-4.75 2,-7 z"
     fill="#ffffff"
     id="path28" />
  <path
     d="m 170.1875,36.871094 c 0.88043,0.0064 1.76086,0.01289 2.66797,0.01953 C 175,37.058594 175,37.058594 176,38.058594 c 0.0409,2.332974 0.0424,4.667052 0,7 -9.41002,2.296128 -9.41002,2.296128 -14,2 -1.3544,-2.708794 -1.06501,-5.009333 -1,-8 3.18091,-1.875922 5.51343,-2.247197 9.1875,-2.1875 z"
     fill="#ffffff"
     id="path29" />
  <path
     d="m 47.75,46.933594 c 0.984844,0.01805 1.969687,0.03609 2.984375,0.05469 1.121484,0.0348 1.121484,0.0348 2.265625,0.07031 0,2.64 0,5.28 0,8 -9.352801,2.536353 -9.352801,2.536353 -13,2 -2.151944,-3.227916 -2.200864,-4.284008 -2,-8 3.349399,-2.025589 5.869625,-2.21739 9.75,-2.125 z"
     fill="#ffffff"
     id="path30" />
</svg>
